<?xml version="1.0" encoding="utf-8"?>
<!-- Generator: Adobe Illustrator 22.1.0, SVG Export Plug-In . SVG Version: 6.00 Build 0)  -->
<svg version="1.1" id="Layer_1" xmlns="http://www.w3.org/2000/svg" xmlns:xlink="http://www.w3.org/1999/xlink" x="0px" y="0px"
	 viewBox="0 0 589.4 152.5" style="enable-background:new 0 0 589.4 152.5;" xml:space="preserve">
<style type="text/css">
	.Arched_x0020_Green{fill:url(#SVGID_1_);stroke:#FFFFFF;stroke-width:0.25;stroke-miterlimit:1;}
	.st0{fill:#FFFFFF;}
	.st1{fill:#009FC7;}
	.st2{fill:#D81D4C;}
	.st3{fill:#80C242;}
	.st4{fill:#F4B31A;}
	.st5{fill:none;}
</style>
<linearGradient id="SVGID_1_" gradientUnits="userSpaceOnUse" x1="-761.6377" y1="903.2229" x2="-760.9306" y2="902.5158">
	<stop  offset="0" style="stop-color:#1EAB4B"/>
	<stop  offset="0.9831" style="stop-color:#19361A"/>
</linearGradient>
<g>
	<path class="st5" d="M551.3,50.7c-4.7-2.7-10.1-4-16-4c-5.9,0-11.3,1.3-16.1,4c-4.8,2.7-8.6,6.4-11.3,11.2
		c-2.7,4.7-4.1,10-4.1,15.9c0,5.9,1.4,11.2,4.1,15.9c2.7,4.7,6.5,8.5,11.3,11.2c4.8,2.7,10.2,4,16.1,4c5.9,0,11.3-1.3,16-4
		c4.7-2.7,8.5-6.4,11.2-11.2c2.7-4.7,4.1-10,4.1-15.9c0-5.9-1.4-11.2-4.1-15.9C559.8,57.1,556.1,53.4,551.3,50.7z"/>
	<path class="st3" d="M77.1,131c-5.4,0-9.8,4.2-10.3,9.4c3.2,0.5,6.5,0.7,9.8,0.7c3.7,0,7.2-0.3,10.7-0.9
		C86.9,135.1,82.4,131,77.1,131z"/>
	<path class="st2" d="M76.9,21.6c5.4,0,9.8-4.1,10.3-9.4c-3.4-0.6-6.9-0.9-10.5-0.9c-3.4,0-6.8,0.3-10,0.8
		C67,17.4,71.5,21.6,76.9,21.6z"/>
	<path class="st1" d="M12.6,65.5c-0.1,0-0.2,0-0.3,0c-0.6,3.7-1,7.4-1,11.2c0,3.2,0.2,6.3,0.7,9.4c0.2,0,0.4,0,0.6,0
		c5.7,0,10.3-4.6,10.3-10.3C22.9,70.1,18.3,65.5,12.6,65.5z"/>
	<path class="st4" d="M140.8,66.4c-5.7,0-10.3,4.6-10.3,10.3c0,5.7,4.6,10.3,10.3,10.3c0.2,0,0.3,0,0.4,0c0.5-3.4,0.8-6.8,0.8-10.3
		c0-3.5-0.3-6.9-0.8-10.3C141.1,66.4,140.9,66.4,140.8,66.4z"/>
	<path class="st4" d="M119.9,87.3c-2.8,0-5.6-0.8-7.6-2.8l-0.3-0.3c-1.9-1.9-3.2-4.2-3.2-6.8l0-2.6c0-2.7,1.2-5.4,3.1-7.3l0.3-0.3
		c2-2,4.8-2.9,7.6-2.9c3.1,0,6.1-0.8,8.4-3.1c4.3-4.3,4.2-11.5-0.5-15.6c-3.9-3.4-9.8-3.5-13.8-0.3c-2.8,2.3-4.1,5.7-3.9,9
		c0.2,2.8-0.8,5.6-2.8,7.6l-0.3,0.3c-2,2-4.8,3.1-7.6,2.9c-0.1,0-0.1,0-0.2,0c-0.1,0-0.1,0-0.2,0c-0.2,0-0.3,0-0.5,0s-0.3,0-0.5,0
		c-0.2,0-0.4,0-0.7,0.1c-0.1,0-0.3,0-0.4,0.1c-0.1,0-0.3,0.1-0.4,0.1c-0.1,0-0.3,0.1-0.5,0.1c0,0,0,0-0.1,0c-0.1,0-0.3,0.1-0.4,0.1
		c0,0-0.1,0-0.1,0c-0.1,0-0.2,0.1-0.3,0.1c-0.1,0-0.1,0-0.2,0.1c-0.1,0-0.2,0.1-0.3,0.1c-0.1,0-0.1,0.1-0.2,0.1
		c-0.1,0-0.2,0.1-0.3,0.1c-0.1,0-0.1,0.1-0.2,0.1c-0.1,0-0.2,0.1-0.3,0.1c-0.1,0-0.1,0.1-0.2,0.1c-0.1,0.1-0.2,0.1-0.4,0.2
		c-0.1,0.1-0.3,0.2-0.4,0.3c0,0,0,0,0,0c-0.1,0.1-0.3,0.2-0.4,0.3c-0.4,0.3-0.8,0.7-1.2,1.1c-0.1,0.1-0.3,0.3-0.4,0.4
		c-0.1,0.1-0.2,0.3-0.3,0.4c-0.1,0.1-0.2,0.3-0.3,0.4c-0.1,0.1-0.2,0.3-0.3,0.4c-0.1,0.1-0.2,0.3-0.3,0.4c-0.1,0.1-0.2,0.3-0.2,0.4
		c-1.3,2.5-1.6,5.5-0.8,8.1c0,0.1,0.1,0.3,0.1,0.4c0,0,0,0.1,0,0.1c0,0.1,0.1,0.2,0.1,0.3c0.1,0.1,0.1,0.3,0.2,0.4
		c0.1,0.2,0.2,0.3,0.2,0.5c0,0,0,0.1,0,0.1c0.1,0.1,0.1,0.3,0.2,0.4c0,0.1,0.1,0.1,0.1,0.2c0.1,0.1,0.2,0.3,0.2,0.4
		c0.1,0.1,0.2,0.3,0.3,0.4c0.1,0.1,0.2,0.3,0.3,0.5c0,0,0,0,0,0c0.1,0.1,0.3,0.3,0.4,0.4c0,0,0,0,0,0c0.1,0.1,0.3,0.3,0.4,0.4
		c0.1,0.1,0.3,0.3,0.4,0.4c0.1,0.1,0.2,0.2,0.3,0.2c0,0,0.1,0.1,0.1,0.1c0.1,0.1,0.2,0.2,0.4,0.3c0.1,0.1,0.3,0.2,0.4,0.3
		c0.1,0.1,0.3,0.2,0.4,0.3c1.9,1.1,4,1.6,6.2,1.5c2.8-0.2,5.6,0.8,7.6,2.8l0.3,0.3c2,2,3.1,4.8,2.9,7.6c-0.2,3,0.8,6.1,3.1,8.4
		c4.3,4.3,11.5,4.2,15.6-0.5c3.4-3.9,3.5-9.8,0.2-13.8C126.6,88.4,123.3,87.3,119.9,87.3z"/>
	<path class="st1" d="M47.1,89.6l0.3-0.3c2-2,4.8-3,7.6-2.8c2.1,0.1,4.3-0.3,6.2-1.5c0.1-0.1,0.3-0.2,0.4-0.3
		c0.1-0.1,0.3-0.2,0.4-0.3c0.1-0.1,0.2-0.2,0.4-0.3c0,0,0.1-0.1,0.1-0.1c0.1-0.1,0.2-0.2,0.3-0.2c0.2-0.1,0.3-0.3,0.4-0.4
		c0.1-0.1,0.3-0.3,0.4-0.4c0,0,0,0,0,0c0.1-0.1,0.3-0.3,0.4-0.4c0,0,0,0,0,0c0.1-0.2,0.2-0.3,0.3-0.5c0.1-0.1,0.2-0.3,0.3-0.4
		c0.1-0.1,0.2-0.3,0.2-0.4c0-0.1,0.1-0.1,0.1-0.2c0.1-0.1,0.1-0.2,0.2-0.4c0,0,0-0.1,0.1-0.1c0.1-0.2,0.1-0.3,0.2-0.5
		c0.1-0.1,0.1-0.3,0.2-0.4c0-0.1,0.1-0.2,0.1-0.3c0,0,0-0.1,0-0.1c0.1-0.1,0.1-0.3,0.1-0.4c0.8-2.7,0.5-5.6-0.8-8.1
		c-0.1-0.1-0.2-0.3-0.2-0.4c-0.1-0.1-0.2-0.3-0.3-0.4c-0.1-0.1-0.2-0.3-0.3-0.4c-0.1-0.1-0.2-0.3-0.3-0.4c-0.1-0.1-0.2-0.3-0.3-0.4
		c-0.1-0.1-0.3-0.3-0.4-0.4c-0.4-0.4-0.8-0.7-1.2-1.1c-0.1-0.1-0.3-0.2-0.4-0.3c0,0,0,0,0,0c-0.1-0.1-0.3-0.2-0.5-0.3
		c-0.1-0.1-0.2-0.1-0.3-0.2c-0.1,0-0.1-0.1-0.2-0.1c-0.1-0.1-0.2-0.1-0.3-0.1c-0.1,0-0.1-0.1-0.2-0.1c-0.1,0-0.2-0.1-0.3-0.1
		c-0.1,0-0.1-0.1-0.2-0.1c-0.1-0.1-0.2-0.1-0.3-0.1c0,0-0.1,0-0.2-0.1c-0.1,0-0.2-0.1-0.3-0.1c0,0-0.1,0-0.1,0
		c-0.1,0-0.3-0.1-0.4-0.1c0,0,0,0-0.1,0c-0.2,0-0.3-0.1-0.5-0.1c-0.1,0-0.3-0.1-0.4-0.1c-0.1,0-0.3,0-0.4-0.1c-0.2,0-0.4,0-0.7-0.1
		c-0.2,0-0.4,0-0.5,0c-0.2,0-0.3,0-0.5,0c-0.1,0-0.1,0-0.2,0c-0.1,0-0.1,0-0.2,0c-2.8,0.2-5.6-0.9-7.6-2.9L47,61.9
		c-2-2-2.9-4.8-2.8-7.6c0.2-3.3-1.1-6.7-3.9-9c-4-3.3-9.9-3.2-13.8,0.3c-4.7,4.1-4.9,11.2-0.5,15.6c2.3,2.3,5.3,3.1,8.4,3.1
		c2.8,0,5.6,0.9,7.6,2.9l0.3,0.3c1.8,1.9,3,4.6,3.1,7.3l0,2.6c0,2.6-1.3,4.9-3.2,6.8l-0.3,0.3c-2,2-4.8,2.8-7.6,2.8
		c-3.4,0-6.7,1.1-9,3.9c-3.3,4-3.2,9.9,0.3,13.8c4.1,4.7,11.3,4.8,15.6,0.5c2.3-2.3,3.3-5.4,3.1-8.4C44,94.3,45.1,91.5,47.1,89.6z"
		/>
	<path class="st3" d="M98.6,108.7c-2.8,0.2-5.6-0.8-7.6-2.8l-0.3-0.3c-2-2-3.1-4.8-2.9-7.6c0-0.1,0-0.1,0-0.2c0-0.1,0-0.1,0-0.2
		c0-0.1,0-0.3,0-0.5c0-0.2,0-0.4,0-0.5c0-0.2,0-0.4,0-0.7c0-0.1,0-0.3-0.1-0.4c0-0.1,0-0.3-0.1-0.4c0-0.1-0.1-0.3-0.1-0.5
		c0,0,0,0,0-0.1c0-0.1-0.1-0.3-0.1-0.4c0,0,0-0.1,0-0.1c0-0.1-0.1-0.2-0.1-0.3c0-0.1,0-0.1-0.1-0.2c0-0.1-0.1-0.2-0.1-0.3
		c0-0.1-0.1-0.1-0.1-0.2c0-0.1-0.1-0.2-0.1-0.3c0-0.1-0.1-0.1-0.1-0.2c0-0.1-0.1-0.2-0.2-0.3c0-0.1,0-0.1-0.1-0.2
		c-0.1-0.1-0.1-0.2-0.2-0.3c-0.1-0.1-0.2-0.3-0.3-0.5c0,0,0,0,0,0c-0.1-0.1-0.2-0.3-0.3-0.4c-0.3-0.4-0.7-0.8-1.1-1.2
		c-0.1-0.1-0.3-0.3-0.4-0.4c-0.1-0.1-0.3-0.2-0.4-0.3c-0.1-0.1-0.3-0.2-0.4-0.3c-0.1-0.1-0.3-0.2-0.4-0.3c-0.1-0.1-0.3-0.2-0.4-0.3
		c-0.1-0.1-0.3-0.2-0.4-0.2c-2.5-1.3-5.5-1.6-8.2-0.8c-0.1,0-0.3,0.1-0.4,0.1c0,0-0.1,0-0.1,0c-0.1,0-0.2,0.1-0.3,0.1
		c-0.1,0.1-0.3,0.1-0.4,0.2c-0.2,0.1-0.3,0.1-0.5,0.2c0,0-0.1,0-0.1,0c-0.1,0.1-0.3,0.1-0.4,0.2c-0.1,0-0.1,0.1-0.2,0.1
		c-0.1,0.1-0.2,0.2-0.4,0.2c-0.1,0.1-0.3,0.2-0.4,0.3c-0.1,0.1-0.3,0.2-0.5,0.3c0,0,0,0,0,0c-0.1,0.1-0.3,0.2-0.4,0.4c0,0,0,0,0,0
		c-0.1,0.1-0.3,0.3-0.4,0.4c-0.1,0.2-0.3,0.3-0.4,0.4c-0.1,0.1-0.2,0.2-0.3,0.3c0,0-0.1,0.1-0.1,0.1c-0.1,0.1-0.2,0.2-0.3,0.4
		c-0.1,0.1-0.2,0.3-0.3,0.4c-0.1,0.1-0.2,0.3-0.3,0.4c-1.1,1.9-1.6,4-1.5,6.2c0.2,2.8-0.8,5.6-2.8,7.6l-0.3,0.3
		c-2,2-4.8,3.1-7.6,2.9c-3-0.2-6.1,0.8-8.4,3.1c-4.3,4.3-4.2,11.5,0.5,15.6c3.9,3.4,9.8,3.5,13.8,0.3c2.8-2.3,3.9-5.6,3.9-9
		c0-2.8,0.8-5.6,2.8-7.6l0.3-0.3c1.9-1.9,4.2-3.2,6.8-3.2l2.6,0c2.6,0,5.4,1.2,7.3,3.1l0.3,0.3c2,2,2.9,4.8,2.9,7.6
		c0,3.1,0.8,6.1,3.1,8.4c4.3,4.3,11.5,4.2,15.6-0.5c3.4-3.9,3.5-9.8,0.3-13.8C105.2,109.8,101.9,108.4,98.6,108.7z"/>
	<path class="st2" d="M55.8,42.9c2.8-0.2,5.6,0.9,7.6,2.9l0.3,0.3c2,2,3,4.8,2.8,7.6c-0.1,2.1,0.3,4.3,1.5,6.2
		c0.1,0.1,0.2,0.3,0.3,0.4c0.1,0.1,0.2,0.3,0.3,0.4c0.1,0.1,0.2,0.2,0.3,0.4c0,0,0.1,0.1,0.1,0.1c0.1,0.1,0.2,0.2,0.3,0.3
		c0.1,0.1,0.3,0.3,0.4,0.4c0.1,0.1,0.3,0.3,0.4,0.4c0,0,0,0,0,0c0.1,0.1,0.3,0.3,0.4,0.4c0,0,0,0,0,0c0.1,0.1,0.3,0.2,0.5,0.3
		c0.1,0.1,0.3,0.2,0.4,0.3c0.1,0.1,0.3,0.2,0.4,0.2c0.1,0.1,0.1,0.1,0.2,0.1c0.1,0.1,0.3,0.1,0.4,0.2c0,0,0.1,0,0.1,0
		c0.2,0.1,0.3,0.2,0.5,0.2c0.1,0.1,0.3,0.1,0.4,0.2c0.1,0,0.2,0.1,0.3,0.1c0,0,0.1,0,0.1,0.1c0.1,0,0.3,0.1,0.4,0.1
		c2.7,0.8,5.6,0.5,8.2-0.8c0.1-0.1,0.3-0.2,0.4-0.2c0.1-0.1,0.3-0.2,0.4-0.3c0.1-0.1,0.3-0.2,0.4-0.3c0.2-0.1,0.3-0.2,0.4-0.3
		c0.1-0.1,0.3-0.2,0.4-0.3c0.1-0.1,0.3-0.3,0.4-0.4c0.4-0.4,0.7-0.8,1.1-1.2c0.1-0.1,0.2-0.3,0.3-0.4c0,0,0,0,0,0
		c0.1-0.1,0.2-0.3,0.3-0.4c0.1-0.1,0.1-0.2,0.2-0.4c0-0.1,0-0.1,0.1-0.2c0.1-0.1,0.1-0.2,0.2-0.3c0-0.1,0.1-0.1,0.1-0.2
		c0-0.1,0.1-0.2,0.1-0.3c0-0.1,0.1-0.1,0.1-0.2c0-0.1,0.1-0.2,0.1-0.3c0,0,0-0.1,0.1-0.2c0-0.1,0.1-0.2,0.1-0.3c0,0,0-0.1,0-0.1
		c0-0.1,0.1-0.3,0.1-0.4c0,0,0,0,0-0.1c0-0.2,0.1-0.3,0.1-0.5c0-0.1,0.1-0.3,0.1-0.4c0-0.1,0-0.3,0.1-0.4c0-0.2,0-0.4,0-0.7
		c0-0.2,0-0.4,0-0.5c0-0.2,0-0.3,0-0.5c0-0.1,0-0.1,0-0.2c0-0.1,0-0.1,0-0.2c-0.2-2.8,0.9-5.6,2.9-7.6l0.3-0.3c2-2,4.8-2.9,7.6-2.8
		c3.3,0.2,6.7-1.1,9-3.9c3.3-4,3.2-9.9-0.3-13.8c-4.1-4.7-11.3-4.9-15.6-0.5c-2.3,2.3-3.1,5.3-3.1,8.4c0,2.8-0.9,5.6-2.9,7.6
		L85.4,41c-1.9,1.9-4.6,3-7.3,3.1l-2.6,0c-2.6,0-4.9-1.3-6.8-3.2l-0.3-0.3c-2-2-2.8-4.8-2.8-7.6c0-3.4-1.1-6.7-3.9-9
		c-4-3.3-9.9-3.2-13.8,0.3c-4.7,4.1-4.9,11.3-0.5,15.6C49.7,42.1,52.8,43.2,55.8,42.9z"/>
	<polygon class="st2" points="174.5,118.3 186,118.3 186,85.5 226.7,85.5 226.7,75.6 186,75.6 186,47.3 231.6,47.3 231.6,37.3 
		174.5,37.3 	"/>
	<rect x="247.9" y="37.3" class="st2" width="11.6" height="81"/>
	<polygon class="st2" points="295.4,82 336,82 336,72.2 295.4,72.2 295.4,47.3 340.9,47.3 340.9,37.3 283.8,37.3 283.8,118.3 
		342.6,118.3 342.6,108.2 295.4,108.2 	"/>
	<path class="st2" d="M402.7,77.3c-3.7-1.5-8.6-2.9-14.7-4.4c-4.7-1.1-8.4-2.1-11.2-3.1c-2.7-1-5-2.3-6.9-4c-1.8-1.7-2.8-4-2.8-6.8
		c0-3.8,1.6-6.9,4.9-9.3c3.3-2.4,8.2-3.6,14.8-3.6c3.7,0,7.5,0.6,11.3,1.7c3.9,1.1,7.5,2.8,10.9,4.9l3.8-9.3
		c-3.3-2.3-7.3-4.1-11.9-5.3c-4.6-1.2-9.3-1.9-14.1-1.9c-6.9,0-12.6,1-17.2,3.1c-4.6,2.1-8.1,4.9-10.4,8.3
		c-2.3,3.5-3.4,7.4-3.4,11.7c0,5.2,1.3,9.3,4,12.3c2.7,3,5.9,5.3,9.6,6.8c3.7,1.5,8.7,2.9,14.8,4.4c4.9,1.2,8.6,2.2,11.3,3.1
		c2.7,0.9,4.9,2.3,6.7,4c1.8,1.7,2.7,4,2.7,6.8c0,3.8-1.7,6.8-5,9.1c-3.3,2.3-8.3,3.4-15,3.4c-5.1,0-10-0.9-14.9-2.6
		c-4.8-1.7-8.8-4-11.9-6.8l-4.3,9c3.2,3,7.7,5.5,13.4,7.3c5.7,1.9,11.5,2.8,17.6,2.8c6.9,0,12.6-1,17.4-3.1c4.7-2,8.2-4.8,10.5-8.3
		c2.3-3.5,3.5-7.4,3.5-11.6c0-5.1-1.3-9.1-4-12.1C409.6,81,406.4,78.8,402.7,77.3z"/>
	<polygon class="st2" points="420.3,47.3 448.1,47.3 448.1,118.3 459.5,118.3 459.5,47.3 487.3,47.3 487.3,37.3 420.3,37.3 	"/>
	<path class="st2" d="M572.7,56.5c-3.7-6.3-8.8-11.2-15.4-14.8c-6.6-3.6-13.9-5.4-22-5.4c-8.2,0-15.5,1.8-22.1,5.4
		c-6.6,3.6-11.7,8.5-15.4,14.9c-3.7,6.3-5.6,13.4-5.6,21.2c0,7.8,1.9,14.8,5.6,21.2c3.7,6.3,8.9,11.3,15.4,14.9
		c6.6,3.6,13.9,5.4,22.1,5.4c8.1,0,15.4-1.8,22-5.4c6.6-3.6,11.7-8.5,15.4-14.8c3.7-6.3,5.6-13.4,5.6-21.2
		C578.2,69.9,576.4,62.8,572.7,56.5z M562.5,93.7c-2.7,4.7-6.5,8.5-11.2,11.2c-4.7,2.7-10.1,4-16,4c-5.9,0-11.3-1.3-16.1-4
		c-4.8-2.7-8.6-6.4-11.3-11.2c-2.7-4.7-4.1-10-4.1-15.9c0-5.9,1.4-11.2,4.1-15.9c2.7-4.7,6.5-8.5,11.3-11.2c4.8-2.7,10.2-4,16.1-4
		c5.9,0,11.3,1.3,16,4c4.7,2.7,8.5,6.4,11.2,11.2c2.7,4.7,4.1,10,4.1,15.9C566.6,83.6,565.3,88.9,562.5,93.7z"/>
</g>
</svg>
